<?xml version="1.0" encoding="UTF-8"?>
<svg id="Layer_2" data-name="Layer 2" xmlns="http://www.w3.org/2000/svg" viewBox="0 0 363.61 386.51">
  <defs>
    <style>
      .cls-1 {
        fill: #ffc000;
      }
    </style>
  </defs>
  <g id="Layer_1-2" data-name="Layer 1">
    <g>
      <path class="cls-1" d="m221.48,1.5c4.13,1.29,8.48,2.13,12.36,3.96,16.08,7.59,25.09,20.32,26.71,38.14.08.85.17,1.71.25,2.47,6.09.61,12.07.76,17.87,1.86,34.14,6.49,56.28,41.23,47.95,75.02-.58,2.37-.7,3.88,1.73,5.58,44.93,31.47,45.04,97.5.26,129.14-1.96,1.38-2.82,2.48-2.19,5.07,9.91,40.59-21.19,78.46-63.07,76.93-.73-.03-1.46,0-2.4,0-1.31,19.96-10.47,34.71-29.2,41.97-18.84,7.3-35.44,2.33-49.91-11.8-14.11,13.87-30.75,19.16-49.74,11.89-18.78-7.19-28.05-21.83-29.4-41.51-6.01-.59-12-.74-17.8-1.83-34.04-6.41-56.35-41.4-47.91-75.03.68-2.7.31-4.11-2.07-5.78-44.46-31.02-44.57-97.56-.21-128.7,2.48-1.74,2.97-3.15,2.25-6.03-9.68-39.08,21.34-77.3,61.79-76.29,1.23.03,2.46,0,3.8,0,.52-3.52.69-7.03,1.59-10.35,5-18.42,16.95-29.69,35.54-33.96.82-.19,1.62-.5,2.43-.76,3.99,0,7.99,0,11.98,0,1.28.37,2.54.81,3.84,1.11,9.34,2.17,17.19,6.93,23.08,13.26,6.1-3.82,11.68-7.71,17.63-10.89,3.3-1.77,7.22-2.36,10.87-3.48,3.99,0,7.99,0,11.98,0Zm93.77,145.36c-12.7,15.18-28.69,23.25-48.66,23.78v-22.34c1.72-.23,3.32-.44,4.91-.65,23.31-3.09,38.72-25.56,33.15-48.36-5.57-22.8-29.03-35.43-51.69-27.78-4.79,1.62-9.54,3.37-14.84,5.25,0-1.97,0-3.31,0-4.64,0-8.61.12-17.22-.06-25.82-.25-12.58-10.2-22.29-22.52-22.25-12.28.04-22.38,9.92-22.44,22.41-.13,26.45-.11,52.9,0,79.35.04,10.04,6.79,18.66,16.29,21.36,1.9.54,3.89.79,5.97,1.2v22.16c-7.95.16-15.05-2.2-21.98-5.65-.15.63-.3.96-.3,1.3,0,28.07-.12,56.14.06,84.21.07,10.31,7.88,19.2,17.88,21.24,1.43.29,2.89.43,4.27.64v23.3c-7.76-2.04-14.97-3.94-22.2-5.84,0,16.9-.27,34.12.09,51.33.25,11.97,10.85,21.45,22.77,21.26,12.05-.2,21.8-9.75,22.09-21.92.2-8.23.06-16.47.07-24.7,0-1.82,0-3.65,0-6,5.92,2.03,11.26,4.01,16.69,5.7,18.21,5.65,37.93-2.67,46.67-19.6,8.73-16.9,3.96-37.79-11.2-49.38-6.97-5.33-14.92-7.81-23.68-8.23v-22.47c20.08.47,36.11,8.71,48.68,23.75,32.28-22.31,32.28-70.36-.03-92.59Zm-189.99,12.73c.24,1.64.37,3.11.69,4.54,2.52,11.12,12.91,18.76,24,17.7,11.44-1.1,20.29-10.44,20.54-21.99.19-8.6.05-17.22.05-25.82,0-29.07.05-58.14-.03-87.21-.03-10.64-7.06-19.59-16.92-22.03-10-2.48-20.21,1.93-25.28,10.8-2.59,4.53-2.86,9.43-2.9,14.47-.02,2.4.63,3.75,2.83,4.98,8.26,4.63,15.03,10.94,20.47,19.17-6.27,4.2-12.32,8.26-18.51,12.4-1.01-1.24-1.76-2.21-2.57-3.13-10.35-11.75-23.32-16.61-38.63-13.34-25.28,5.41-38.23,32.21-27.24,55.64,1.73,3.69,3.67,7.28,5.77,11.42-17.75,6.51-32.12,16.63-39.29,34.62-7.2,18.06-5.59,35.48,4.8,51.84,8.34,13.14,20.39,21.53,35.64,24.62,18.34,3.71,34.8-.84,49.29-13.02,5.02,5.61,9.9,11.06,15,16.76-21.94,18.55-46.62,23.76-73.81,17.37-.36.49-.59.66-.64.88-4.83,21.03,11.26,43.58,32.84,46.51,9.72,1.32,18.48-1.49,27.27-4.79,2.13-.8,4.33-1.42,6.92-2.25,0,10.87-.24,21.1.06,31.31.4,13.43,13.24,23.37,26.42,20.79,11.3-2.2,18.5-11.22,18.51-23.36.03-45.41.01-90.82,0-136.24,0-1.07-.1-2.15-.16-3.52-19.56,9.42-37.56,7.51-53.55-6.95-9.37-8.48-13.81-19.39-13.85-32.18h22.27Z"/>
      <path class="cls-1" d="m148.83,386.51c-5.62,0-11.38-1.13-17.27-3.38-18.31-7.01-28.49-20.98-30.26-41.54-1.48-.13-2.97-.25-4.42-.35-4.04-.3-8.21-.62-12.26-1.38-16.59-3.13-31.47-13.3-40.82-27.9-9.38-14.65-12.4-32.5-8.27-48.97.55-2.21.29-2.95-1.47-4.18C12.45,243.73.04,219.84,0,193.25c-.04-26.57,12.3-50.48,33.84-65.6,1.95-1.37,2.23-2.12,1.66-4.44-4.7-18.97-.25-38.74,12.2-54.25,12.59-15.69,31.21-24.34,51.09-23.9.81.02,1.61.02,2.46,0,.09-.68.17-1.36.24-2.03.28-2.38.56-4.85,1.21-7.21,5.12-18.84,17.45-30.62,36.65-35.03.49-.11.99-.28,1.52-.46.26-.09.53-.18.8-.26l.22-.07h12.43l.21.06c.42.12.83.25,1.24.38.87.27,1.69.52,2.52.71,8.85,2.06,16.77,6.48,22.98,12.8,1.46-.92,2.89-1.85,4.3-2.76,4.19-2.71,8.15-5.27,12.38-7.53,2.43-1.3,5.14-2,7.75-2.67,1.12-.29,2.28-.59,3.38-.93l.22-.07h12.44l.22.07c1.28.4,2.61.76,3.89,1.12,2.89.79,5.88,1.61,8.66,2.92,16.63,7.85,25.9,21.1,27.56,39.36.04.41.08.83.12,1.23,1.52.14,3.05.26,4.54.37,4.04.31,8.22.63,12.25,1.4,16.62,3.16,31.5,13.3,40.81,27.82,9.37,14.6,12.4,32.47,8.31,49.03-.54,2.21-.51,2.84,1.14,3.99,21.81,15.28,34.36,39.24,34.41,65.72.05,26.49-12.39,50.5-34.15,65.87-1.67,1.18-2.03,1.71-1.6,3.5,4.82,19.73.34,39.93-12.29,55.42-12.72,15.6-31.78,24.09-52.29,23.36-.31-.01-.63-.02-.96-.01-1.75,20.74-11.85,34.82-30.05,41.87-18.15,7.04-35.12,3.29-50.45-11.12-10.27,9.72-21.32,14.59-33,14.59ZM97.16,48.04c-18.35,0-35.46,8.25-47.13,22.79-11.86,14.77-16.1,33.6-11.62,51.65.88,3.54.13,5.53-2.85,7.62C14.83,144.66,2.96,167.67,3,193.25c.04,25.59,11.98,48.59,32.77,63.09,2.8,1.96,3.52,3.95,2.67,7.37-3.93,15.67-1.05,32.66,7.88,46.62,8.91,13.91,23.07,23.6,38.85,26.57,3.88.73,7.79,1.03,11.93,1.34,1.88.14,3.82.29,5.75.48l1.26.12.09,1.27c1.37,19.98,10.94,33.51,28.44,40.21,17.38,6.65,33.58,2.76,48.15-11.56l1.05-1.03,1.05,1.03c14.69,14.35,30.94,18.21,48.32,11.48,17.42-6.75,26.92-20.43,28.24-40.67l.09-1.4h2.28c.57-.01,1.07-.01,1.58,0,19.58.71,37.74-7.4,49.86-22.26,12.03-14.75,16.29-34,11.7-52.81-.81-3.33.46-5.02,2.78-6.66,20.95-14.8,32.93-37.91,32.88-63.42-.05-25.5-12.13-48.56-33.13-63.27-3.23-2.26-2.94-4.68-2.33-7.17,3.89-15.76,1-32.78-7.92-46.69-8.87-13.83-23.03-23.49-38.85-26.5-3.87-.74-7.78-1.04-11.92-1.35-1.9-.15-3.86-.3-5.82-.49l-1.22-.12-.19-1.86c-.06-.59-.13-1.22-.18-1.85-1.56-17.13-10.26-29.55-25.86-36.92-2.54-1.2-5.27-1.95-8.17-2.74-1.24-.34-2.52-.69-3.78-1.08h-11.53c-1.1.33-2.22.62-3.3.9-2.55.66-4.97,1.28-7.08,2.41-4.12,2.2-8.03,4.73-12.17,7.4-1.76,1.14-3.54,2.29-5.37,3.43l-1.05.66-.84-.91c-5.92-6.37-13.64-10.81-22.32-12.83-.93-.22-1.84-.5-2.72-.77-.33-.1-.66-.2-1-.3h-11.53c-.17.06-.35.12-.52.17-.58.2-1.17.4-1.81.55-18.04,4.14-29.62,15.21-34.43,32.89-.58,2.15-.85,4.4-1.12,6.77-.13,1.13-.26,2.26-.43,3.4l-.19,1.28h-2.56c-.88.01-1.73.02-2.58,0-.51-.01-1.03-.02-1.54-.02Zm118.43,315.75c-12.74,0-23.65-10.33-23.91-22.73-.25-12.1-.2-24.34-.14-36.18.02-5.08.05-10.15.05-15.18v-1.95l22.2,5.84v-20.04s0,0,0,0c-1-.13-2.03-.26-3.06-.48-10.99-2.24-19.01-11.79-19.08-22.7-.13-20.71-.11-41.77-.08-62.14,0-7.36.02-14.72.02-22.08,0-.43.11-.79.21-1.14.04-.15.09-.31.14-.51l.44-1.82,1.68.84c7.34,3.65,13.52,5.37,19.81,5.49v-19.42c-.24-.04-.49-.09-.73-.13-1.43-.25-2.79-.49-4.16-.88-10.19-2.9-17.34-12.27-17.38-22.8-.12-29.14-.12-55.1,0-79.36.07-13.14,10.8-23.86,23.93-23.91h.08c13.16,0,23.67,10.4,23.94,23.72.12,5.98.1,12.04.07,17.91,0,2.65-.02,5.29-.02,7.94v2.52c1.02-.36,2.02-.72,3-1.08,3.4-1.22,6.61-2.37,9.86-3.47,11.5-3.88,23.5-2.9,33.79,2.76,10.03,5.52,17.08,14.78,19.84,26.09,2.75,11.26.59,23.19-5.94,32.74-6.54,9.57-16.92,15.94-28.47,17.47l-3.61.48v19.47c18.63-.86,33.69-8.46,46.01-23.18l.88-1.05,1.12.77c15.79,10.87,24.86,28.17,24.88,47.46.02,19.04-9.27,36.84-24.85,47.6l-1.13.78-.88-1.05c-12.34-14.77-27.41-22.35-46.03-23.16v19.5c8.96.66,16.53,3.43,23.09,8.45,15.82,12.1,20.71,33.65,11.62,51.26-9.12,17.67-29.5,26.22-48.45,20.35-3.71-1.15-7.34-2.43-11.18-3.78-1.17-.41-2.36-.83-3.56-1.25v3.89c0,2.53,0,5.06.02,7.6.02,5.61.05,11.42-.09,17.14-.31,12.91-10.66,23.18-23.57,23.39-.13,0-.25,0-.38,0Zm-21-72.14c0,4.4-.03,8.82-.05,13.25-.06,11.82-.11,24.04.14,36.1.23,10.91,9.99,19.96,21.24,19.79,11.29-.18,20.34-9.17,20.61-20.46.14-5.67.11-11.46.09-17.05-.01-2.54-.02-5.08-.02-7.61v-8.1l1.99.68c1.91.66,3.76,1.31,5.57,1.94,3.82,1.34,7.42,2.61,11.08,3.74,17.56,5.45,36.44-2.48,44.89-18.86,8.42-16.31,3.89-36.29-10.78-47.5-6.41-4.9-13.88-7.49-22.84-7.92l-1.43-.07v-25.43l1.54.04c19.51.45,35.95,8.27,48.9,23.23,14.31-10.39,22.47-26.48,22.45-44.35-.02-17.83-8.19-33.87-22.48-44.21-13.07,15.13-29.08,22.74-48.87,23.26l-1.54.04v-25.2l6.21-.83c10.71-1.42,20.32-7.32,26.39-16.19,6.04-8.84,8.05-19.89,5.5-30.33-2.56-10.48-9.08-19.06-18.37-24.17-9.54-5.25-20.69-6.15-31.39-2.55-3.22,1.09-6.42,2.24-9.8,3.45-1.63.58-3.29,1.18-5.02,1.79l-2,.71v-6.77c0-2.65,0-5.3.02-7.95.02-5.85.05-11.9-.07-17.84-.23-11.67-9.43-20.78-20.94-20.78h-.07c-11.49.04-20.89,9.42-20.94,20.92-.12,24.25-.12,50.2,0,79.33.04,9.2,6.29,17.39,15.2,19.93,1.22.35,2.5.57,3.86.81.66.12,1.32.23,2,.37l1.21.24v24.86l-1.47.03c-6.66.14-13.33-1.43-20.82-4.91,0,7.03,0,14.09-.02,21.14-.03,20.36-.05,41.41.08,62.11.06,9.35,7.23,17.85,16.68,19.78.93.19,1.91.32,2.85.44.45.06.9.12,1.34.18l1.28.19v26.54l-22.2-5.84Zm-46.77,72.09c-5.35,0-10.61-1.83-14.92-5.28-5.39-4.31-8.6-10.64-8.8-17.38-.21-7.05-.16-14-.11-21.36.02-2.62.04-5.27.04-7.95-.15.05-.31.09-.46.14-1.56.49-3.03.94-4.43,1.47-8.59,3.23-17.82,6.26-28,4.88-10.89-1.48-20.96-7.85-27.62-17.49-6.47-9.35-8.83-20.59-6.48-30.84.11-.49.38-.81.6-1.07.08-.1.18-.21.29-.36l.59-.8.96.23c27.05,6.35,50.39,1.09,71.31-16.07l-13-14.53c-14.72,11.9-31.35,16.08-49.43,12.42-15.65-3.17-27.97-11.68-36.61-25.29-10.65-16.78-12.31-34.68-4.92-53.2,6.44-16.15,18.72-27.26,38.59-34.88-.41-.8-.82-1.59-1.21-2.36-1.35-2.62-2.63-5.09-3.81-7.61-5.49-11.7-5.43-24.88.16-36.14,5.5-11.09,15.76-18.97,28.13-21.61,15.58-3.33,29.06,1.31,40.07,13.81.55.62,1.07,1.27,1.66,2,.03.04.06.07.09.11l16.12-10.8c-5.15-7.42-11.41-13.14-19.11-17.46-2.58-1.44-3.62-3.27-3.6-6.3.03-5.01.3-10.31,3.09-15.2,5.44-9.53,16.27-14.16,26.94-11.51,10.6,2.63,18.03,12.28,18.06,23.49.06,21.28.05,42.91.04,63.83,0,7.79,0,15.59,0,23.38,0,2.53.01,5.06.02,7.59.03,5.99.06,12.18-.08,18.27-.27,12.19-9.68,22.28-21.9,23.45-11.89,1.15-22.91-6.96-25.6-18.86-.23-1.03-.37-2.05-.51-3.13-.01-.08-.02-.16-.03-.24h-19.44c.37,11.95,4.85,21.9,13.33,29.57,15.17,13.73,32.62,15.99,51.89,6.71l2.04-.98.11,2.26c.02.46.05.88.07,1.28.05.8.09,1.56.09,2.31v17.77c.01,39.49.02,78.98,0,118.47,0,12.75-7.75,22.49-19.72,24.83-1.49.29-2.99.43-4.49.43Zm-20.78-56.07v2.06c0,3.4-.02,6.73-.05,10.02-.05,7.33-.1,14.25.11,21.25.17,5.85,2.97,11.37,7.67,15.12,4.83,3.86,11.01,5.4,16.97,4.24,10.66-2.08,17.29-10.47,17.3-21.88.02-39.49.01-78.98,0-118.46v-17.77c0-.41-.02-.81-.04-1.24-19.67,8.75-37.55,6.01-53.18-8.13-9.48-8.58-14.31-19.78-14.34-33.29v-1.5s25.07,0,25.07,0l.19,1.28c.08.54.15,1.07.21,1.58.13,1.01.25,1.96.46,2.85,2.36,10.43,11.99,17.54,22.39,16.53,10.71-1.03,18.95-9.86,19.19-20.53.13-6.05.1-12.22.08-18.19-.01-2.53-.02-5.07-.02-7.6,0-7.79,0-15.59,0-23.39,0-20.92.02-42.54-.04-63.82-.03-9.82-6.52-18.29-15.78-20.58-9.36-2.32-18.85,1.74-23.61,10.09-2.44,4.27-2.67,8.93-2.7,13.74-.01,1.96.43,2.75,2.07,3.66,8.55,4.79,15.41,11.22,20.98,19.65l.82,1.24-20.88,13.99-.86-1.05c-.35-.43-.67-.82-.96-1.19-.56-.69-1.05-1.31-1.57-1.9-10.24-11.62-22.75-15.95-37.19-12.86-11.47,2.45-20.97,9.75-26.07,20.01-5.18,10.44-5.23,22.66-.13,33.53,1.16,2.47,2.42,4.92,3.76,7.51.64,1.25,1.31,2.53,1.99,3.87l.76,1.5-1.58.58c-19.94,7.31-32.15,18.04-38.42,33.77-7.01,17.58-5.44,34.57,4.67,50.48,8.18,12.89,19.85,20.95,34.67,23.96,17.6,3.57,33.76-.71,48.03-12.7l1.11-.94,16.99,19-1.18,1c-21.42,18.11-46.34,24.14-74.06,17.93-1.98,9.3.24,19.47,6.13,27.98,6.19,8.94,15.5,14.86,25.56,16.22,9.49,1.29,17.97-1.49,26.54-4.71,1.48-.56,2.99-1.03,4.59-1.52.76-.24,1.56-.48,2.39-.75l1.96-.63Z"/>
    </g>
  </g>
</svg>