<?xml version="1.0" encoding="UTF-8"?>
<svg id="Layer_2" data-name="Layer 2" xmlns="http://www.w3.org/2000/svg" viewBox="0 0 827.53 465.18">
  <defs>
    <style>
      .cls-1 {
        fill: #ffc000;
      }
    </style>
  </defs>
  <g id="Layer_1-2" data-name="Layer 1">
    <g>
      <path class="cls-1" d="m387.69.03c34.83,0,69.66-.07,104.49.02,47.23.12,82.74,20.7,106.32,61.6,19.37,33.6,38.68,67.23,57.65,101.05,7.7,13.73,18.81,21.08,34.35,23.47,18.88,2.91,38.08,5.44,56.24,11.04,38.7,11.94,63.83,38.67,75.57,77.3,3.14,10.35,4.19,21.54,4.78,32.42.79,14.46.33,28.99.15,43.49-.41,33.94-28.3,62.32-62.31,63.19-14.99.38-30,.19-44.99.07-3.36-.03-5.32.9-7.08,4.02-17.44,30.85-44.05,47.51-79.43,47.5-35.56-.02-62.27-16.77-79.71-47.87-1.52-2.71-3.25-3.64-6.29-3.64-89.16.07-178.32.08-267.48-.02-3.34,0-5.03,1.23-6.6,4.01-17.44,30.89-44.06,47.49-79.42,47.51-35.36.02-61.99-16.59-79.48-47.41-1.73-3.05-3.61-4.15-7.04-4.11-13.66.17-27.33.12-41,.05C28.11,413.54.16,385.68.06,347.49c-.08-28.66-.07-57.33,0-85.99.08-32.16,19.81-56.91,51.24-64.56,12.93-3.15,25.83-6.43,38.74-9.67,11.92-3,20.86-9.78,26.98-20.55,19.72-34.74,39.76-69.3,59.36-104.1,16.49-29.28,40.28-49.33,72.79-58.24,8.91-2.44,18.34-3.97,27.55-4.08,36.99-.45,73.99-.19,110.99-.19V.03Zm371.74,232.68c.16-.71.32-1.42.48-2.13-6.97-3.04-13.68-7.21-20.96-8.9-16.83-3.91-33.86-7.25-50.97-9.66-24.74-3.48-42.74-15.56-54.92-37.54-18.95-34.21-38.42-68.14-58.16-101.9-17.83-30.49-44.8-46.4-80.2-46.55-71.32-.29-142.65-.33-213.97.02-35.59.17-62.54,16.33-80.37,47.1-20.61,35.57-40.85,71.35-61.29,107.02-9.41,16.43-23.28,27.1-41.66,31.8-14.5,3.72-29.04,7.29-43.51,11.12-5.69,1.51-10.89,4.1-15.82,9.64,9.53,0,17.67-.13,25.81.03,9.8.2,15.41,7.88,13,17.4-4.05,15.96-8.06,31.94-12.08,47.91-2.26,8.98-6.32,12.22-15.51,12.25-7.61.03-15.23,0-22.88,0,0,15.59-1.38,30.69.36,45.42,2.04,17.32,15.75,30.09,32.72,31.52,14.38,1.21,28.94.27,43.42.25.25,0,.5-.39.75-.6-6.49-64.34,44.65-102.94,87.58-103.12,23.89-.1,45,6.89,62.72,22.87,23.86,21.52,32.93,48.84,29.82,80.72h259.48c-6.37-65.07,44.34-102.72,85.99-103.54,23.69-.47,44.83,6.01,62.72,21.5,24.9,21.55,34.5,49.35,31.32,82.14,1.89.14,3.35.34,4.8.34,11.5.02,23,.12,34.49-.02,21.74-.28,38.55-17.09,38.8-38.79.13-11.5.04-23,.01-34.49,0-1.27-.29-2.53-.5-4.33-5.75,0-11.23.21-16.69-.04-31.82-1.45-59.28-29.37-60.25-61.16-.34-11.24,4.49-16.25,15.75-16.29,6.57-.02,13.15,0,19.72,0Zm-500.97,142.57c.27-35.26-28.46-64.6-63.59-64.94-35.71-.35-65.26,28.25-65.58,63.46-.32,36.06,28.25,65.49,63.81,65.72,35.86.24,65.09-28.49,65.36-64.24Zm374.49,64.25c35.8.11,64.91-28.79,65.04-64.57.13-35.22-28.76-64.43-63.92-64.62-35.91-.19-65.13,28.6-65.24,64.29-.11,35.63,28.71,64.8,64.12,64.91Zm165.53-155.69c-1.71-4.58-3.48-8.66-4.78-12.89-2.9-9.44-8.27-14.12-18.91-12.52-7.07,1.06-14.44.2-21.76.2,2.55,16.53,23.79,28.3,45.45,25.22ZM26.25,258.94v25.46c4.49,0,8.62.13,12.74-.09,1.03-.05,2.65-1.05,2.89-1.92,2.1-7.62,3.95-15.3,5.99-23.45h-21.61Z"/>
      <path class="cls-1" d="m264.86,193.98c-31.48,0-62.97-.04-94.45.03-6.6.01-11.69-2.09-14.39-8.52-2.13-5.09-.15-9.4,2.4-13.65,14.82-24.68,29.63-49.36,44.45-74.04,5.57-9.27,10.94-18.67,16.75-27.79,12.96-20.38,31.67-30.93,55.83-31.14,28.15-.24,56.31-.08,84.46-.04,10,.01,14.97,5.05,14.97,15.13.03,41.65.03,83.29,0,124.94,0,10.01-5.05,15.05-15.06,15.06-31.65.03-63.3.01-94.95.01Zm-73.36-26.29c2.13.2,3.11.37,4.08.37,49.65.01,99.31-.04,148.96.1,4.14.01,4.5-1.76,4.49-5.1-.09-31.16-.05-62.32-.07-93.47,0-1.44-.21-2.89-.36-4.89-2.1,0-3.89,0-5.67,0-21.49,0-42.99.2-64.48-.06-17.29-.21-29.91,7.04-38.68,21.88-15.07,25.5-30.44,50.83-45.66,76.24-.82,1.36-1.49,2.81-2.6,4.93Z"/>
      <path class="cls-1" d="m426.79,65.19c-.08,1.74-.19,3.06-.19,4.38,0,31.16.03,62.31-.06,93.47,0,3.3.29,5.13,4.46,5.12,49.65-.14,99.3-.09,148.95-.11,1.11,0,2.22-.25,4.21-.5-1.93-3.32-3.53-6.13-5.19-8.9-4.26-7.15-8.63-14.23-12.8-21.43-4.3-7.42-2.8-14.98,3.54-18.86,6.69-4.09,14.03-2,18.64,5.61,9.84,16.22,19.66,32.46,29.28,48.81,6.53,11.1.77,21.16-12.05,21.17-63.48.05-126.96.04-190.44,0-9.31,0-14.44-5.22-14.45-14.65-.04-41.99-.04-83.97,0-125.96.01-9.39,5.14-14.48,14.58-14.5,28.66-.05,57.32-.29,85.97.08,22.11.28,39.77,9.83,52.59,27.87,3.85,5.41,7.11,11.26,10.35,17.07,3.63,6.5,1.78,13.88-4.07,17.57-6.15,3.88-13.52,2.26-17.87-4.23-3.24-4.83-5.93-10.04-9.18-14.87-7.25-10.78-17.5-17.16-30.44-17.42-24.48-.49-48.98-.17-73.47-.17-.63,0-1.26.23-2.37.45Z"/>
      <path class="cls-1" d="m180.65,232.71c-4.32,0-8.66.18-12.97-.04-7.27-.36-12.56-5.94-12.54-12.92.02-6.99,5.34-12.61,12.63-12.8,8.81-.22,17.63-.23,26.44,0,7.24.19,12.58,5.92,12.56,12.89-.02,6.96-5.36,12.5-12.65,12.83-4.48.21-8.98.04-13.47.03Z"/>
      <path class="cls-1" d="m426.36,206.89c4.32,0,8.65-.12,12.97.03,7.6.25,13.07,5.76,13.04,12.94-.03,6.96-5.37,12.61-12.65,12.8-8.81.24-17.63.25-26.44,0-7.27-.21-12.57-5.94-12.54-12.91.03-6.98,5.37-12.49,12.65-12.81,4.32-.19,8.65-.03,12.97-.05Z"/>
      <path class="cls-1" d="m232.63,375.23c-.28,21.63-17.91,38.75-39.58,38.43-21.16-.31-38.19-18.08-37.92-39.57.26-21.29,18.25-38.3,40.1-37.92,20.58.36,37.67,18.21,37.4,39.06Zm-38.82,12.55c7.12,0,12.99-5.94,12.89-13.07-.09-6.9-5.89-12.62-12.8-12.64-7.09-.02-12.99,5.96-12.88,13.06.11,6.9,5.92,12.65,12.79,12.66Z"/>
      <path class="cls-1" d="m672.16,375.02c-.17,21.64-17.73,38.87-39.38,38.64-21.21-.23-38.37-17.94-38.14-39.37.22-21.16,17.86-38.23,39.41-38.13,20.9.09,38.29,17.82,38.12,38.86Zm-38.99-12.96c-6.89.11-12.63,5.94-12.64,12.81-.01,7.13,5.96,13.04,13.06,12.91,7.11-.14,12.87-6.2,12.65-13.33-.21-6.86-6.16-12.5-13.06-12.39Z"/>
    </g>
  </g>
</svg>