<?xml version="1.0" encoding="UTF-8"?>
<svg id="Layer_2" data-name="Layer 2" xmlns="http://www.w3.org/2000/svg" viewBox="0 0 363.03 362.22">
  <defs>
    <style>
      .cls-1 {
        fill: #ffc000;
      }
    </style>
  </defs>
  <g id="Layer_1-2" data-name="Layer 1">
    <g>
      <g>
        <path class="cls-1" d="m361.03,84.72v59.59h-35.94v105.95h26.93v39.86h9.02v70.1c-118.71,0-237.43.01-356.14.01-.89,0-1.77-.16-2.56-.24v-69.77h16.58v-40.13h18.33v-106.05H2.07c0-1.49,0-2.62,0-3.76,0-17.41.06-34.82-.07-52.22-.02-2.66.94-3.82,3.25-4.87C55.5,60.11,105.72,36.97,155.93,13.81c8.35-3.85,16.61-7.87,24.92-11.81.47,0,.93,0,1.4,0,1.2.67,2.37,1.42,3.62,1.99,58.38,26.92,116.77,53.82,175.16,80.73Zm-21.03,38.17c0-7.31-.14-14.2.07-21.08.08-2.73-.74-4.05-3.28-5.21-50.67-23.24-101.3-46.58-151.9-69.98-2.46-1.14-4.4-1.06-6.82.06-49.54,22.91-99.08,45.83-148.75,68.45-4.87,2.22-6.88,4.59-6.35,9.99.57,5.85.13,11.79.13,17.77h316.9ZM23.22,338.95h316.52v-27.37H23.22v27.37Zm17.01-67.58v18.71h290.47v-18.71H40.23Zm106.72-127.05h-40.94v105.58h40.94v-105.58Zm68.54,105.6h40.86v-105.61h-40.86v105.61Zm-130.89.05v-105.56h-25.89v105.56h25.89Zm83.77-105.71v105.7h25.6v-105.7h-25.6Zm109.48.02v105.68h25.77v-105.68h-25.77Z"/>
        <path class="cls-1" d="m71.29,362.22c-22.14,0-44.27,0-66.41,0-.74,0-1.44-.09-2.06-.17-.24-.03-.47-.06-.69-.08l-1.8-.18v-73.58h16.58v-40.13h18.33v-102.05H.07v-5.76c0-4.29,0-8.58,0-12.86.01-12.9.02-26.23-.08-39.34-.02-3.31,1.25-5.26,4.41-6.71C47.66,61.51,94.13,40.12,155.09,11.99c5.7-2.63,11.47-5.39,17.05-8.06,2.61-1.25,5.23-2.5,7.85-3.74l.41-.19h2.37l.45.25c.39.22.78.44,1.17.67.79.46,1.55.9,2.31,1.25,51.76,23.86,103.52,47.72,155.29,71.57l21.04,9.7v62.87h-35.94v101.95h26.92v39.86h9.02v74.1h-29.39c-87.44,0-174.9.01-262.34.01Zm-66.96-4.03c.19.02.38.02.56.02,109.58,0,219.17,0,328.75,0h25.39v-66.1h-9.02v-39.86h-26.92v-109.95h35.94v-56.3l-18.71-8.62c-51.76-23.85-103.53-47.7-155.29-71.57-.94-.43-1.81-.94-2.65-1.43-.22-.13-.44-.25-.65-.38h-.43c-2.48,1.18-4.95,2.36-7.43,3.54-5.59,2.67-11.37,5.44-17.1,8.08C95.81,43.75,49.33,65.14,6.08,85c-1.74.8-2.09,1.31-2.08,3.04.1,13.13.09,26.47.08,39.38,0,4.29,0,8.57,0,12.86v1.76h35.17v110.05h-18.33v40.13H4.33v65.98Zm337.42-17.25H21.22v-31.37h320.52v31.37Zm-316.52-4h312.52v-23.37H25.22v23.37Zm307.48-44.86H38.23v-22.71h294.47v22.71Zm-290.47-4h286.47v-14.71H42.23v14.71Zm44.37-36.12h-29.89v-109.56h29.89v109.56Zm-25.89-4h21.89v-101.56h-21.89v101.56Zm244.9,4h-29.78v-109.68h29.78v109.68Zm-25.78-4h21.78v-101.68h-21.78v101.68Zm-83.88,4h-29.6v-109.7h29.6v109.7Zm-25.6-4h21.6v-101.7h-21.6v101.7Zm87.98,3.96h-44.86v-109.61h44.86v109.61Zm-40.86-4h36.86v-101.61h-36.86v101.61Zm-68.54,3.98h-44.94v-109.58h44.94v109.58Zm-40.94-4h36.94v-101.58h-36.94v101.58Zm233.99-123.02H21.1v-2c0-1.83.04-3.67.08-5.49.09-4.18.18-8.13-.2-12.08-.66-6.82,2.53-9.73,7.52-12,48.86-22.26,98.4-45.17,146.32-67.33l2.42-1.12c3.02-1.4,5.57-1.42,8.5-.06,54.35,25.13,104.03,48.03,151.89,69.98,3.26,1.5,4.55,3.55,4.44,7.09-.15,4.85-.12,9.66-.09,14.75.01,2.06.02,4.14.02,6.26v2Zm-316.88-4h312.88c0-1.43-.01-2.84-.02-4.24-.03-5.13-.06-9.97.09-14.9.06-1.91-.32-2.5-2.11-3.33-47.86-21.96-97.55-44.85-151.9-69.99-1.85-.85-3.19-.84-5.14.06l-2.42,1.12c-47.92,22.16-97.47,45.08-146.34,67.34-4.49,2.04-5.6,3.76-5.19,7.97.41,4.18.31,8.44.22,12.56-.03,1.13-.05,2.27-.07,3.41Z"/>
      </g>
      <g>
        <path class="cls-1" d="m149.09,78.17c.38-18.19,14.91-31.92,32.46-31.68,18.14.24,32.36,15.24,31.75,32.73-.63,18.14-15.22,32.08-32.97,31.49-17.67-.59-31.7-15.21-31.24-32.53Zm43.22.45c0-6.14-5.02-11.21-11.1-11.21-6.08,0-11.11,5.07-11.11,11.21,0,6.23,4.87,11.1,11.1,11.1,6.24,0,11.11-4.87,11.11-11.1Z"/>
        <path class="cls-1" d="m181.43,112.72c-.39,0-.78,0-1.18-.02-18.78-.63-33.66-16.14-33.17-34.58.4-18.95,15.29-33.64,34-33.64.16,0,.32,0,.48,0,9.34.13,18.02,3.91,24.45,10.64,6.29,6.6,9.59,15.18,9.28,24.15-.66,18.97-15.43,33.44-33.86,33.44Zm-.35-64.24c-16.51,0-29.65,12.98-30,29.73h0c-.43,16.27,12.71,29.94,29.31,30.49.35.01.69.02,1.04.02,16.26,0,29.29-12.8,29.87-29.58.27-7.89-2.63-15.43-8.18-21.25-5.67-5.95-13.35-9.29-21.61-9.4-.14,0-.29,0-.43,0Zm.11,43.23c-7.35,0-13.1-5.75-13.1-13.1s5.88-13.21,13.11-13.21,13.11,5.93,13.11,13.21h0c0,7.35-5.76,13.1-13.11,13.1Zm0-22.31c-5.02,0-9.11,4.13-9.11,9.21s4,9.1,9.1,9.1,9.11-4,9.11-9.1c0-5.08-4.08-9.21-9.11-9.21Z"/>
      </g>
    </g>
  </g>
</svg>