<?xml version="1.0" encoding="UTF-8"?>
<svg id="Layer_2" data-name="Layer 2" xmlns="http://www.w3.org/2000/svg" viewBox="0 0 408.92 286.2">
  <defs>
    <style>
      .cls-1 {
        fill: #ffc000;
      }
    </style>
  </defs>
  <g id="Layer_1-2" data-name="Layer 1">
    <g>
      <path class="cls-1" d="m0,16.87C2.5,8.94,6.89,2.77,15.44.71,17.73.16,20.17.03,22.55.03,100.67,0,178.79,0,256.91.01c14.21,0,22.48,8.35,22.52,22.63.03,11.31,0,22.63,0,33.94,0,1.43,0,2.86,0,4.74,1.84,0,3.27,0,4.7,0,18.23,0,36.47.15,54.7-.06,8.2-.09,14.53,2.89,19.89,9.03,14.36,16.44,28.88,32.73,43.45,48.98,4.59,5.12,6.76,10.85,6.73,17.76-.13,28.48-.04,56.97-.06,85.46,0,14.51-8.28,22.77-22.78,22.8-7.45.01-14.91.06-22.36-.04-2.18-.03-3.12.46-3.71,2.87-4.77,19.61-16.93,32.43-36.65,36.82-18.47,4.11-34.16-1.98-46.52-16.14-5.69-6.51-9.03-14.36-10.52-23.22h-123.72c-2.03,10.77-6.89,19.95-14.71,27.68-19.55,19.32-55.26,16.28-70.53-6.56-3.83-5.72-5.77-12.69-8.74-19.01-.48-1.01-1.78-2.22-2.78-2.3-3.71-.27-7.45-.05-11.17-.12-12.22-.24-20.78-8.69-21.04-20.93-.14-6.49-.03-12.98-.03-19.79-5.3-.07-10.63.61-13.61-4.79V16.87Zm13.6,173.73h252.23v-4.49c0-54.03,0-108.05,0-162.08,0-8.48-1.91-10.42-10.24-10.42-77.3,0-154.6,0-231.9,0-8.13,0-10.09,1.97-10.09,10.14,0,54.16,0,108.32,0,162.47,0,1.32,0,2.65,0,4.37Zm293.05-115.31h-26.97v115.53c1.65,0,3.08,0,4.52,0,9.84,0,19.69-.14,29.53.05,22.73.44,41.39,15.67,46.25,37.8.58,2.64,1.68,3.08,3.98,3.05,7.32-.11,14.63-.02,21.95-.04,7.01-.02,9.34-2.34,9.35-9.35.02-18.36,0-36.73,0-55.09,0-1.15-.14-2.3-.22-3.69-1.92,0-3.51,0-5.1,0-20.09,0-40.18.04-60.27-.01-14.77-.04-23-8.3-23.01-22.99-.02-17.43,0-34.86,0-52.29v-12.96Zm88.61,74.6c0-4.95.31-9.36-.12-13.7-.25-2.48-1.13-5.34-2.72-7.16-14.86-17.04-29.89-33.92-45-50.74-1.32-1.47-3.47-2.96-5.3-3.05-7.13-.35-14.28-.14-21.87-.14,0,1.68,0,3.11,0,4.53,0,20.08,0,40.17,0,60.25,0,7.87,2.08,10,9.87,10.01,19.02.02,38.03,0,57.05,0,2.51,0,5.01,0,8.09,0Zm-81.38,54.61c-18.65-.27-34.12,14.81-34.4,33.55-.28,18.6,14.86,34.13,33.56,34.41,18.62.28,34.09-14.83,34.39-33.57.3-18.65-14.79-34.11-33.55-34.38Zm-218.62,0c-18.73.1-33.92,15.41-33.83,34.12.08,18.69,15.5,33.99,34.11,33.86,18.68-.13,33.93-15.5,33.86-34.14-.07-18.67-15.47-33.93-34.13-33.83Zm129.37,27.04v-26.83h-47.14v26.83h47.14Zm14.26-26.85v26.99c6.96,0,13.58,0,20.2,0s6.89,0,8.68-6.56c.28-1.02.6-2.06,1.1-2.98,3.21-5.85,6.47-11.66,9.7-17.45h-39.68Zm-109.94-.02c7.13,7.63,11.47,15.83,13.3,25.34.12.64,1.17,1.57,1.79,1.58,6.45.12,12.9.07,19.34.07v-27h-34.43Zm-101.67.02c0,6.96-.2,13.71.08,20.44.16,3.91,2.83,6.26,6.82,6.47,3.97.22,7.97.2,11.94-.02.91-.05,2.33-1.25,2.51-2.14,1.88-8.92,5.85-16.72,12-23.44.29-.32.36-.84.55-1.31H27.28Z"/>
      <path class="cls-1" d="m313.58,218.11c11.38.08,20.41,9.36,20.24,20.79-.17,11.11-9.5,20.12-20.68,19.96-11.13-.16-20.17-9.44-20.06-20.61.11-11.15,9.34-20.22,20.5-20.15Zm-.29,13.63c-3.51.1-6.58,3.22-6.59,6.71-.02,3.63,3.33,6.9,6.93,6.78,3.52-.12,6.56-3.23,6.58-6.73.01-3.68-3.24-6.86-6.92-6.76Z"/>
      <path class="cls-1" d="m95.5,218.11c11.19.07,20.27,9.18,20.3,20.37.03,11.27-9.37,20.53-20.69,20.38-11.15-.14-20.15-9.38-20.06-20.58.08-11.17,9.28-20.24,20.46-20.17Zm-.08,13.62c-3.51,0-6.63,3-6.74,6.53-.12,3.66,3.07,6.99,6.71,6.98,3.63,0,6.87-3.33,6.77-6.95-.1-3.49-3.24-6.55-6.74-6.56Z"/>
    </g>
  </g>
</svg>