<?xml version="1.0" encoding="UTF-8"?>
<svg id="Layer_2" data-name="Layer 2" xmlns="http://www.w3.org/2000/svg" viewBox="0 0 383.25 382.84">
  <defs>
    <style>
      .cls-1 {
        fill: #ffc000;
      }
    </style>
  </defs>
  <g id="Layer_1-2" data-name="Layer 1">
    <g>
      <path class="cls-1" d="m383.25,85.61v297.23H0V85.94h22.57v21.98h75.92c0-7.17.18-14.13-.08-21.08-.12-3.03,1.04-4.33,3.65-5.5,25.1-11.29,50.12-22.74,75.21-34.03,2.51-1.13,3.48-2.44,3.44-5.27-.17-12.1-.07-24.2-.07-36.3,0-1.83,0-3.66,0-5.73h40.78v22.37h-18.37c0,6.51.2,12.61-.08,18.69-.15,3.32.83,5.01,3.99,6.42,24.89,11.12,49.67,22.53,74.55,33.67,2.97,1.33,3.98,2.89,3.85,6.11-.28,6.81-.08,13.65-.08,20.58h75.65v-22.24h22.31Zm-120.39,274.36c0-1.57,0-2.92,0-4.26,0-84.72-.02-169.44.07-254.16,0-3.02-.83-4.59-3.68-5.87-21.49-9.61-42.87-19.45-64.36-29.05-1.64-.73-4.17-.76-5.81-.03-21.38,9.54-42.64,19.36-64.03,28.88-3.25,1.45-4.24,3.19-4.23,6.67.1,84.22.08,168.44.08,252.66,0,.75.08,1.51-.01,2.24-.29,2.46.77,3.23,3.21,3.19,7.11-.13,14.22-.05,21.33-.05,1.68,0,3.36,0,5.35,0,0-2.13,0-3.61,0-5.09.09-11.97-.31-23.98.38-35.92,1.25-21.47,19.94-37.88,41.89-37.46,21.27.4,39.16,17.76,39.77,38.96.34,11.72.12,23.45.14,35.18,0,1.32,0,2.64,0,4.1h29.91ZM22.67,130.68v177.87h75.49v-177.87H22.67Zm262.88.05v177.91h75.02v-177.91h-75.02Zm-187.31,200.88H22.66v28.27h75.57v-28.27Zm187.31-.1v28.49h75.03v-28.49h-75.03Zm-75.19,28.51c0-13.61.08-26.79-.09-39.97-.03-2.01-.96-4.13-1.91-5.98-3.82-7.46-12.4-11.41-20.44-9.59-8.72,1.98-14.57,9.21-14.71,18.7-.17,11.45-.05,22.91-.02,34.36,0,.82.28,1.63.44,2.47h36.73Z"/>
      <path class="cls-1" d="m209.11,226.86h22.03v29.41h-22.03v-29.41Z"/>
      <path class="cls-1" d="m150.99,151.62v-29.3h21.9v29.3h-21.9Z"/>
      <path class="cls-1" d="m231.02,151.72h-21.94v-29.4h21.94v29.4Z"/>
      <path class="cls-1" d="m150.77,256.3c0-9.46-.03-18.52.07-27.59,0-.68.99-1.93,1.54-1.94,6.8-.13,13.61-.09,20.58-.09v29.61h-22.19Z"/>
      <path class="cls-1" d="m151.03,174.62h21.88v29.35h-21.88v-29.35Z"/>
      <path class="cls-1" d="m231.12,204.09h-21.93v-29.39h21.93v29.39Z"/>
      <path class="cls-1" d="m49.14,152.21h21.9v29.29h-21.9v-29.29Z"/>
      <path class="cls-1" d="m49.24,204.46h21.84v29.37h-21.84v-29.37Z"/>
      <path class="cls-1" d="m48.92,286.2c0-9.41-.04-18.48.08-27.55,0-.71,1.2-1.99,1.86-2.01,6.69-.15,13.37-.09,20.25-.09v29.64h-22.2Z"/>
      <path class="cls-1" d="m334.17,152.2v29.31h-22.04v-29.31h22.04Z"/>
      <path class="cls-1" d="m312.15,204.4h21.88v29.37h-21.88v-29.37Z"/>
      <path class="cls-1" d="m312.14,286.15v-29.59c6.89,0,13.58-.06,20.26.09.66.01,1.84,1.31,1.85,2.02.13,9.07.08,18.13.08,27.48h-22.19Z"/>
    </g>
  </g>
</svg>